<!--?xml version="1.0" encoding="utf-8"?-->
<!-- Generator: Adobe Illustrator 18.1.1, SVG Export Plug-In . SVG Version: 6.00 Build 0)  -->

<svg version="1.1" id="_x32_" xmlns="http://www.w3.org/2000/svg" xmlns:xlink="http://www.w3.org/1999/xlink" x="0px" y="0px" viewBox="0 0 512 512" style="width: 48px; height: 48px; opacity: 1;" xml:space="preserve">
<style type="text/css">
	.st0{fill:#000000;}

	@media (prefers-color-scheme: dark) {
		.st0{fill: #ffffff;}
	}
</style>
<g>
	<path class="st0" d="M161.33,230.809C132.658,198.504,106.362,164.047,82.482,128c-11.926-18.02-23.265-36.443-33.857-55.246
		C38.046,53.957,28.1,34.765,19.587,15.236L0,23.712c8.98,20.547,19.192,40.208,30.033,59.516
		c10.885,19.295,22.459,38.128,34.663,56.558c24.422,36.846,51.305,72.065,80.679,105.182L161.33,230.809z"></path>
	<path class="st0" d="M225.014,247.51c-7.97-11.684-15.588-23.58-22.869-35.622L123.078,284.4
		c12.614,9.669,25.477,18.986,38.56,27.894c0.571-1.092,1.274-2.102,2.153-2.988l58.323-59.539
		C222.993,248.873,223.96,248.125,225.014,247.51z"></path>
	<path class="st0" d="M425.123,330.563c-53.84-5.765-110.566-24.327-165.226-52.294c-0.557,1.428-1.319,2.769-2.344,3.955
		l-54.133,63.37c-1.011,1.201-2.256,2.132-3.618,2.856c21.14,27.595,44.698,54.251,71.127,79.274
		c26.415,25.016,55.744,48.39,88.254,69.04l6.446-16.269c-22.562-14.687-43.541-30.737-63.026-47.768
		c21.536,13.376,44.127,25.499,67.669,36.062l9.216-23.214c-28.525-15.639-55.1-33.681-79.713-53.43
		c26.561,16.57,54.588,31.125,83.83,43.043l11.456-28.861c-11.588-6.19-22.883-12.834-33.842-19.873
		c12.175,4.57,24.481,8.658,36.89,12.225l12.98-32.736c-13.582-5.406-26.957-11.493-40.084-18.233
		c15.061,2.974,30.019,5.106,44.772,6.417L425.123,330.563z"></path>
	<path class="st0" d="M245.877,259.465c-4.982-4.571-11.852-5.347-15.398-1.634l-57.37,60.455
		c-3.56,3.714-1.861,11.075,3.867,16.335c5.743,5.274,13.259,6.322,16.643,2.454l55.202-62.432
		C252.22,270.782,250.857,264.035,245.877,259.465z"></path>
	<path class="st0" d="M438.821,301.592c6.124,0,11.09-4.96,11.09-11.076c0-6.109-4.966-11.075-11.09-11.075
		c-6.109,0-11.075,4.966-11.075,11.075C427.746,296.632,432.712,301.592,438.821,301.592z"></path>
	<path class="st0" d="M472.62,225.205c-4.147,0-7.501,3.354-7.501,7.501c0,4.146,3.354,7.501,7.501,7.501
		c4.146,0,7.501-3.355,7.501-7.501C480.121,228.56,476.766,225.205,472.62,225.205z"></path>
	<path class="st0" d="M450.117,383.348c-5.186,0-9.376,4.19-9.376,9.376c0,5.178,4.19,9.376,9.376,9.376
		c5.186,0,9.376-4.198,9.376-9.376C459.493,387.538,455.303,383.348,450.117,383.348z"></path>
	<path class="st0" d="M502.624,331.464c-5.186,0-9.376,4.19-9.376,9.376c0,5.179,4.19,9.376,9.376,9.376
		c5.186,0,9.376-4.198,9.376-9.376C512,335.654,507.81,331.464,502.624,331.464z"></path>
	<path class="st0" d="M430.119,443.978c-5.186,0-9.376,4.19-9.376,9.376c0,5.178,4.19,9.376,9.376,9.376
		c5.186,0,9.376-4.198,9.376-9.376C439.496,448.168,435.306,443.978,430.119,443.978z"></path>
	<path class="st0" d="M378.36,273.551c5.582,0,10.094-4.513,10.094-10.087c0-5.56-4.512-10.072-10.094-10.072
		c-5.553,0-10.065,4.513-10.065,10.072C368.295,269.038,372.807,273.551,378.36,273.551z"></path>
</g>
</svg>
